# xmcd
#
# Track frame offsets: 
#        300
#        30517
#        45127
#        62142
#        77367
#        107205
#        131350
#        157900
#        178832
#        198127
#
# Disc length: 3047 seconds
#
# Revision: 0
# Processed by: cddbd v1.5.2PL0 Copyright (c) Steve Scherf et al.
# Submitted via: ExactAudioCopy v1.0b2
#
DISCID=700be30a
DTITLE=Tuan Vu - Son Tuyen - Dua Em Qua Canh Dong Vang
DYEAR=1993
DGENRE=Pop
TTITLE0=Toi Van Nho
TTITLE1=Tuan Vu - Chieu Lang Em
TTITLE2=Son Tuyen - Nguoi Yeu Co Don
TTITLE3=Son Tuyen - Gui Nguoi Ngan Dam
TTITLE4=Son Tuyen - Co Lai Do Ben Ha
TTITLE5=Ruoc Tinh Ve Voi Que Huong
TTITLE6=Son Tuyen - Than Phan
TTITLE7=Tuan Vu  - Bai Hat Nay Cho Em
TTITLE8=Tinh Ca Tren Lua
TTITLE9=Tuan Vu  - Huyen Su Ca Mot Nguoi Mang Ten Quoc
EXTD=
EXTT0=
EXTT1=
EXTT2=
EXTT3=
EXTT4=
EXTT5=
EXTT6=
EXTT7=
EXTT8=
EXTT9=
PLAYORDER=
